# xmcd
#
# Track frame offsets: 
#        182
#        19052
#        33492
#        47502
#        58665
#        75327
#        95855
#        106347
#        120455
#        136150
#        155577
#        177162
#        191355
#        208012
#        225637
#        239632
#        254050
#        269985
#        285830
#        300025
#        324270
#        337302
#
# Disc length: 4706 seconds
#
# Revision: 7
# Processed by: cddbd v1.5.2PL0 Copyright (c) Steve Scherf et al.
# Submitted via: ExactAudioCopy v0.95a5
#
DISCID=34126016
DTITLE=Kris Kristofferson - The Legendary Years
DYEAR=1990
DGENRE=Country Folk
TTITLE0=Me And Bobby McGee
TTITLE1=Josie
TTITLE2=Lover Please  (with Rita Coolidge)
TTITLE3=Jesus Was A Capricorn
TTITLE4=Magdalene
TTITLE5=Living Legend
TTITLE6=Help Me Make It Through The Tight
TTITLE7=Smokey Put The Sweat On Me
TTITLE8=Why Me?
TTITLE9=The Silver Tongued Devil And I
TTITLE10=When She's Wrong
TTITLE11=I May Smoke Too Much
TTITLE12=Easter Island
TTITLE13=It's Never Gonna Be The Same Again
TTITLE14=The Golden Idol
TTITLE15=I'd Rather Be Sorry  (with Rita Coolidge)
TTITLE16=The Bigger The Fool
TTITLE17=Shake Hands With The Devil
TTITLE18=Nobody Loves Anybody Anymore
TTITLE19=Broken Freedom Song
TTITLE20=Here Comes That Rainbow Again
TTITLE21=Epitaph (Black And Blue)
EXTD=
EXTT0=
EXTT1=
EXTT2=
EXTT3=
EXTT4=
EXTT5=
EXTT6=
EXTT7=
EXTT8=
EXTT9=
EXTT10=
EXTT11=
EXTT12=
EXTT13=
EXTT14=
EXTT15=
EXTT16=
EXTT17=
EXTT18=
EXTT19=
EXTT20=
EXTT21=
PLAYORDER=
